<mxfile host="app.diagrams.net" modified="2021-03-28T00:29:43.324Z" agent="5.0 (Macintosh)" etag="Vq9UOwCfOThIDTzCpxIX" version="14.5.3" type="github">
  <diagram id="p4JYOtqt4zscpxUmibfL" name="Page-1">
    <mxGraphModel dx="2065" dy="879" grid="1" gridSize="10" guides="1" tooltips="1" connect="1" arrows="1" fold="1" page="1" pageScale="1" pageWidth="827" pageHeight="1169" math="0" shadow="0">
      <root>
        <mxCell id="0" />
        <mxCell id="1" parent="0" />
        <mxCell id="pbRLsEfahS6LtdyStATY-1" value="programming language" style="rounded=0;whiteSpace=wrap;html=1;" vertex="1" parent="1">
          <mxGeometry x="310" y="120" width="120" height="50" as="geometry" />
        </mxCell>
        <mxCell id="pbRLsEfahS6LtdyStATY-28" value="designed by" style="edgeStyle=orthogonalEdgeStyle;rounded=0;orthogonalLoop=1;jettySize=auto;html=1;entryX=1;entryY=0.5;entryDx=0;entryDy=0;" edge="1" parent="1" source="pbRLsEfahS6LtdyStATY-2" target="pbRLsEfahS6LtdyStATY-27">
          <mxGeometry x="-0.0909" y="-15" relative="1" as="geometry">
            <mxPoint as="offset" />
          </mxGeometry>
        </mxCell>
        <mxCell id="pbRLsEfahS6LtdyStATY-2" value="JavaScript" style="rounded=0;whiteSpace=wrap;html=1;" vertex="1" parent="1">
          <mxGeometry x="190" y="270" width="120" height="50" as="geometry" />
        </mxCell>
        <mxCell id="pbRLsEfahS6LtdyStATY-3" value="" style="endArrow=classic;html=1;exitX=0.5;exitY=0;exitDx=0;exitDy=0;entryX=0.25;entryY=1;entryDx=0;entryDy=0;" edge="1" parent="1" source="pbRLsEfahS6LtdyStATY-2" target="pbRLsEfahS6LtdyStATY-1">
          <mxGeometry width="50" height="50" relative="1" as="geometry">
            <mxPoint x="390" y="420" as="sourcePoint" />
            <mxPoint x="440" y="370" as="targetPoint" />
          </mxGeometry>
        </mxCell>
        <mxCell id="pbRLsEfahS6LtdyStATY-4" value="&lt;div&gt;instance of&lt;/div&gt;" style="edgeLabel;html=1;align=center;verticalAlign=middle;resizable=0;points=[];rotation=-50;" vertex="1" connectable="0" parent="pbRLsEfahS6LtdyStATY-3">
          <mxGeometry x="-0.0364" y="-3" relative="1" as="geometry">
            <mxPoint x="-12.45" y="-8.91" as="offset" />
          </mxGeometry>
        </mxCell>
        <mxCell id="pbRLsEfahS6LtdyStATY-34" style="edgeStyle=orthogonalEdgeStyle;rounded=0;orthogonalLoop=1;jettySize=auto;html=1;entryX=0;entryY=0.5;entryDx=0;entryDy=0;" edge="1" parent="1" source="pbRLsEfahS6LtdyStATY-5" target="pbRLsEfahS6LtdyStATY-32">
          <mxGeometry relative="1" as="geometry" />
        </mxCell>
        <mxCell id="pbRLsEfahS6LtdyStATY-35" value="&lt;div&gt;designed by&lt;/div&gt;" style="edgeLabel;html=1;align=center;verticalAlign=middle;resizable=0;points=[];" vertex="1" connectable="0" parent="pbRLsEfahS6LtdyStATY-34">
          <mxGeometry x="0.26" y="-4" relative="1" as="geometry">
            <mxPoint x="-13" y="-19" as="offset" />
          </mxGeometry>
        </mxCell>
        <mxCell id="pbRLsEfahS6LtdyStATY-5" value="Python" style="rounded=0;whiteSpace=wrap;html=1;" vertex="1" parent="1">
          <mxGeometry x="710" y="270" width="120" height="50" as="geometry" />
        </mxCell>
        <mxCell id="pbRLsEfahS6LtdyStATY-6" value="" style="endArrow=classic;html=1;exitX=0.5;exitY=0;exitDx=0;exitDy=0;entryX=0.75;entryY=1;entryDx=0;entryDy=0;" edge="1" parent="1" source="pbRLsEfahS6LtdyStATY-5" target="pbRLsEfahS6LtdyStATY-1">
          <mxGeometry width="50" height="50" relative="1" as="geometry">
            <mxPoint x="480" y="270" as="sourcePoint" />
            <mxPoint x="580" y="170" as="targetPoint" />
          </mxGeometry>
        </mxCell>
        <mxCell id="pbRLsEfahS6LtdyStATY-7" value="&lt;div&gt;instance of&lt;/div&gt;" style="edgeLabel;html=1;align=center;verticalAlign=middle;resizable=0;points=[];rotation=25;" vertex="1" connectable="0" parent="pbRLsEfahS6LtdyStATY-6">
          <mxGeometry x="-0.0364" y="-3" relative="1" as="geometry">
            <mxPoint x="11.25" y="-9.15" as="offset" />
          </mxGeometry>
        </mxCell>
        <mxCell id="pbRLsEfahS6LtdyStATY-30" style="edgeStyle=orthogonalEdgeStyle;rounded=0;orthogonalLoop=1;jettySize=auto;html=1;entryX=0.5;entryY=1;entryDx=0;entryDy=0;" edge="1" parent="1" source="pbRLsEfahS6LtdyStATY-8" target="pbRLsEfahS6LtdyStATY-5">
          <mxGeometry relative="1" as="geometry" />
        </mxCell>
        <mxCell id="pbRLsEfahS6LtdyStATY-31" value="implementation of" style="edgeLabel;html=1;align=center;verticalAlign=middle;resizable=0;points=[];" vertex="1" connectable="0" parent="pbRLsEfahS6LtdyStATY-30">
          <mxGeometry x="-0.1833" y="-1" relative="1" as="geometry">
            <mxPoint x="-1" y="-11" as="offset" />
          </mxGeometry>
        </mxCell>
        <mxCell id="pbRLsEfahS6LtdyStATY-8" value="CPython" style="rounded=0;whiteSpace=wrap;html=1;" vertex="1" parent="1">
          <mxGeometry x="710" y="440" width="120" height="40" as="geometry" />
        </mxCell>
        <mxCell id="pbRLsEfahS6LtdyStATY-9" value="&lt;div&gt;3D modeliing software&lt;/div&gt;" style="rounded=0;whiteSpace=wrap;html=1;" vertex="1" parent="1">
          <mxGeometry x="940" y="582.5" width="120" height="47.5" as="geometry" />
        </mxCell>
        <mxCell id="pbRLsEfahS6LtdyStATY-11" value="instance of" style="edgeStyle=orthogonalEdgeStyle;rounded=0;orthogonalLoop=1;jettySize=auto;html=1;entryX=0.5;entryY=0;entryDx=0;entryDy=0;exitX=0.5;exitY=1;exitDx=0;exitDy=0;" edge="1" parent="1" source="pbRLsEfahS6LtdyStATY-10" target="pbRLsEfahS6LtdyStATY-9">
          <mxGeometry relative="1" as="geometry">
            <Array as="points">
              <mxPoint x="1000" y="480" />
              <mxPoint x="1000" y="620" />
            </Array>
          </mxGeometry>
        </mxCell>
        <mxCell id="pbRLsEfahS6LtdyStATY-36" value="has part" style="edgeStyle=orthogonalEdgeStyle;rounded=0;orthogonalLoop=1;jettySize=auto;html=1;entryX=1;entryY=0.5;entryDx=0;entryDy=0;" edge="1" parent="1" source="pbRLsEfahS6LtdyStATY-10" target="pbRLsEfahS6LtdyStATY-8">
          <mxGeometry x="-0.0909" y="-10" relative="1" as="geometry">
            <mxPoint as="offset" />
          </mxGeometry>
        </mxCell>
        <mxCell id="pbRLsEfahS6LtdyStATY-10" value="Blender" style="rounded=0;whiteSpace=wrap;html=1;" vertex="1" parent="1">
          <mxGeometry x="940" y="440" width="120" height="40" as="geometry" />
        </mxCell>
        <mxCell id="pbRLsEfahS6LtdyStATY-12" value="SpiderMonkey" style="rounded=0;whiteSpace=wrap;html=1;" vertex="1" parent="1">
          <mxGeometry x="110" y="440" width="120" height="40" as="geometry" />
        </mxCell>
        <mxCell id="pbRLsEfahS6LtdyStATY-15" value="implementation of" style="endArrow=classic;html=1;exitX=0.5;exitY=0;exitDx=0;exitDy=0;entryX=0.25;entryY=1;entryDx=0;entryDy=0;" edge="1" parent="1" source="pbRLsEfahS6LtdyStATY-12" target="pbRLsEfahS6LtdyStATY-2">
          <mxGeometry x="0.1124" y="8" width="50" height="50" relative="1" as="geometry">
            <mxPoint x="390" y="420" as="sourcePoint" />
            <mxPoint x="440" y="370" as="targetPoint" />
            <mxPoint as="offset" />
          </mxGeometry>
        </mxCell>
        <mxCell id="pbRLsEfahS6LtdyStATY-16" value="Firefox" style="rounded=0;whiteSpace=wrap;html=1;" vertex="1" parent="1">
          <mxGeometry x="110" y="580" width="120" height="40" as="geometry" />
        </mxCell>
        <mxCell id="pbRLsEfahS6LtdyStATY-17" value="part of" style="endArrow=classic;html=1;entryX=0.5;entryY=0;entryDx=0;entryDy=0;exitX=0.5;exitY=1;exitDx=0;exitDy=0;" edge="1" parent="1" source="pbRLsEfahS6LtdyStATY-12" target="pbRLsEfahS6LtdyStATY-16">
          <mxGeometry width="50" height="50" relative="1" as="geometry">
            <mxPoint x="120" y="560" as="sourcePoint" />
            <mxPoint x="170" y="510" as="targetPoint" />
            <mxPoint as="offset" />
          </mxGeometry>
        </mxCell>
        <mxCell id="pbRLsEfahS6LtdyStATY-37" value="part of" style="edgeStyle=orthogonalEdgeStyle;rounded=0;orthogonalLoop=1;jettySize=auto;html=1;entryX=0.5;entryY=0;entryDx=0;entryDy=0;" edge="1" parent="1" source="pbRLsEfahS6LtdyStATY-19" target="pbRLsEfahS6LtdyStATY-23">
          <mxGeometry relative="1" as="geometry">
            <Array as="points">
              <mxPoint x="350" y="550" />
              <mxPoint x="350" y="550" />
            </Array>
          </mxGeometry>
        </mxCell>
        <mxCell id="pbRLsEfahS6LtdyStATY-19" value="V8" style="rounded=0;whiteSpace=wrap;html=1;" vertex="1" parent="1">
          <mxGeometry x="290" y="440" width="120" height="40" as="geometry" />
        </mxCell>
        <mxCell id="pbRLsEfahS6LtdyStATY-21" value="" style="endArrow=classic;html=1;exitX=0.5;exitY=0;exitDx=0;exitDy=0;entryX=0.75;entryY=1;entryDx=0;entryDy=0;" edge="1" parent="1" source="pbRLsEfahS6LtdyStATY-19" target="pbRLsEfahS6LtdyStATY-2">
          <mxGeometry width="50" height="50" relative="1" as="geometry">
            <mxPoint x="390" y="420" as="sourcePoint" />
            <mxPoint x="440" y="370" as="targetPoint" />
          </mxGeometry>
        </mxCell>
        <mxCell id="pbRLsEfahS6LtdyStATY-22" value="implementation of" style="edgeLabel;html=1;align=center;verticalAlign=middle;resizable=0;points=[];" vertex="1" connectable="0" parent="pbRLsEfahS6LtdyStATY-21">
          <mxGeometry x="-0.2197" relative="1" as="geometry">
            <mxPoint y="-23.36" as="offset" />
          </mxGeometry>
        </mxCell>
        <mxCell id="pbRLsEfahS6LtdyStATY-23" value="Chromium" style="rounded=0;whiteSpace=wrap;html=1;" vertex="1" parent="1">
          <mxGeometry x="290" y="580" width="120" height="40" as="geometry" />
        </mxCell>
        <mxCell id="pbRLsEfahS6LtdyStATY-24" value="&lt;div&gt;web browser&lt;/div&gt;" style="rounded=0;whiteSpace=wrap;html=1;" vertex="1" parent="1">
          <mxGeometry x="190" y="710" width="120" height="40" as="geometry" />
        </mxCell>
        <mxCell id="pbRLsEfahS6LtdyStATY-25" value="instance of" style="endArrow=classic;html=1;exitX=0.5;exitY=1;exitDx=0;exitDy=0;entryX=0.25;entryY=0;entryDx=0;entryDy=0;" edge="1" parent="1" source="pbRLsEfahS6LtdyStATY-16" target="pbRLsEfahS6LtdyStATY-24">
          <mxGeometry width="50" height="50" relative="1" as="geometry">
            <mxPoint x="390" y="490" as="sourcePoint" />
            <mxPoint x="470" y="560" as="targetPoint" />
          </mxGeometry>
        </mxCell>
        <mxCell id="pbRLsEfahS6LtdyStATY-26" value="instance of" style="endArrow=classic;html=1;exitX=0.5;exitY=1;exitDx=0;exitDy=0;entryX=0.75;entryY=0;entryDx=0;entryDy=0;" edge="1" parent="1" source="pbRLsEfahS6LtdyStATY-23" target="pbRLsEfahS6LtdyStATY-24">
          <mxGeometry width="50" height="50" relative="1" as="geometry">
            <mxPoint x="329" y="690" as="sourcePoint" />
            <mxPoint x="379" y="640" as="targetPoint" />
          </mxGeometry>
        </mxCell>
        <mxCell id="pbRLsEfahS6LtdyStATY-27" value="Brendan Eich" style="rounded=0;whiteSpace=wrap;html=1;" vertex="1" parent="1">
          <mxGeometry x="-40" y="275" width="120" height="40" as="geometry" />
        </mxCell>
        <mxCell id="pbRLsEfahS6LtdyStATY-32" value="Guido van Rossum" style="rounded=0;whiteSpace=wrap;html=1;" vertex="1" parent="1">
          <mxGeometry x="940" y="272.5" width="120" height="45" as="geometry" />
        </mxCell>
        <mxCell id="pbRLsEfahS6LtdyStATY-39" value="developer" style="endArrow=classic;html=1;entryX=0.5;entryY=1;entryDx=0;entryDy=0;exitX=0.75;exitY=0;exitDx=0;exitDy=0;" edge="1" parent="1" source="pbRLsEfahS6LtdyStATY-8" target="pbRLsEfahS6LtdyStATY-32">
          <mxGeometry width="50" height="50" relative="1" as="geometry">
            <mxPoint x="710" y="490" as="sourcePoint" />
            <mxPoint x="760" y="440" as="targetPoint" />
          </mxGeometry>
        </mxCell>
        <mxCell id="pbRLsEfahS6LtdyStATY-48" value="based on" style="edgeStyle=orthogonalEdgeStyle;rounded=0;orthogonalLoop=1;jettySize=auto;html=1;entryX=1;entryY=0.5;entryDx=0;entryDy=0;" edge="1" parent="1" source="pbRLsEfahS6LtdyStATY-42" target="pbRLsEfahS6LtdyStATY-47">
          <mxGeometry x="-0.1429" y="-15" relative="1" as="geometry">
            <mxPoint as="offset" />
          </mxGeometry>
        </mxCell>
        <mxCell id="pbRLsEfahS6LtdyStATY-42" value="C" style="rounded=0;whiteSpace=wrap;html=1;" vertex="1" parent="1">
          <mxGeometry x="520" y="270" width="120" height="50" as="geometry" />
        </mxCell>
        <mxCell id="pbRLsEfahS6LtdyStATY-44" value="instance of" style="endArrow=classic;html=1;exitX=0.5;exitY=0;exitDx=0;exitDy=0;entryX=0.5;entryY=1;entryDx=0;entryDy=0;" edge="1" parent="1" source="pbRLsEfahS6LtdyStATY-42" target="pbRLsEfahS6LtdyStATY-1">
          <mxGeometry width="50" height="50" relative="1" as="geometry">
            <mxPoint x="540" y="490" as="sourcePoint" />
            <mxPoint x="590" y="440" as="targetPoint" />
          </mxGeometry>
        </mxCell>
        <mxCell id="pbRLsEfahS6LtdyStATY-46" value="programming language" style="endArrow=classic;html=1;exitX=0;exitY=0.5;exitDx=0;exitDy=0;entryX=0.5;entryY=1;entryDx=0;entryDy=0;" edge="1" parent="1" source="pbRLsEfahS6LtdyStATY-8" target="pbRLsEfahS6LtdyStATY-42">
          <mxGeometry width="50" height="50" relative="1" as="geometry">
            <mxPoint x="670" y="490" as="sourcePoint" />
            <mxPoint x="720" y="440" as="targetPoint" />
          </mxGeometry>
        </mxCell>
        <mxCell id="pbRLsEfahS6LtdyStATY-47" value="B" style="rounded=0;whiteSpace=wrap;html=1;" vertex="1" parent="1">
          <mxGeometry x="354" y="270" width="96" height="50" as="geometry" />
        </mxCell>
        <mxCell id="pbRLsEfahS6LtdyStATY-49" value="Dennis Ritchie" style="rounded=0;whiteSpace=wrap;html=1;" vertex="1" parent="1">
          <mxGeometry x="414" y="380" width="120" height="40" as="geometry" />
        </mxCell>
        <mxCell id="pbRLsEfahS6LtdyStATY-50" value="&lt;div&gt;designed by&lt;/div&gt;" style="endArrow=classic;html=1;exitX=0.25;exitY=1;exitDx=0;exitDy=0;entryX=0.5;entryY=0;entryDx=0;entryDy=0;" edge="1" parent="1" source="pbRLsEfahS6LtdyStATY-42" target="pbRLsEfahS6LtdyStATY-49">
          <mxGeometry width="50" height="50" relative="1" as="geometry">
            <mxPoint x="460" y="490" as="sourcePoint" />
            <mxPoint x="530" y="370" as="targetPoint" />
          </mxGeometry>
        </mxCell>
      </root>
    </mxGraphModel>
  </diagram>
</mxfile>
